<svg width="83" height="56" viewBox="0 0 83 56" fill="none" xmlns="http://www.w3.org/2000/svg">
<path d="M41.483 55.293C32.6665 55.2342 23.9603 53.3265 15.927 49.693C15.4489 49.4797 15.0431 49.132 14.759 48.6922C14.475 48.2524 14.3249 47.7395 14.327 47.216V25.243C14.3278 24.5229 14.6142 23.8325 15.1234 23.3233C15.6326 22.8142 16.3229 22.5278 17.043 22.527H65.923C66.6431 22.5278 67.3335 22.8142 67.8427 23.3233C68.3519 23.8325 68.6382 24.5229 68.639 25.243V47.22C68.6412 47.7435 68.4911 48.2564 68.2071 48.6962C67.923 49.136 67.5172 49.4837 67.039 49.697C59.0055 53.3291 50.2993 55.2355 41.483 55.293Z" fill="#FF9100"/>
<path d="M41.477 37.489C41.1147 37.4893 40.7561 37.4172 40.422 37.277L1.66003 20.923C1.15992 20.7123 0.734386 20.3567 0.438379 19.9018C0.142373 19.447 -0.0105486 18.9139 -0.000646423 18.3713C0.00925575 17.8288 0.181546 17.3016 0.493952 16.8579C0.806358 16.4142 1.24454 16.0742 1.75201 15.882L40.514 1.17697C41.1378 0.937713 41.8282 0.937713 42.452 1.17697L80.695 15.882C81.1994 16.076 81.6344 16.4161 81.9444 16.8587C82.2544 17.3013 82.4254 17.8264 82.4354 18.3667C82.4453 18.907 82.2939 19.438 82.0005 19.8917C81.707 20.3455 81.2849 20.7014 80.788 20.914L42.545 37.268C42.2073 37.4116 41.844 37.4855 41.477 37.485V37.489Z" fill="#FF9100"/>
<path d="M18.854 51.192C20.8539 51.192 22.475 49.5708 22.475 47.571C22.475 45.5712 20.8539 43.95 18.854 43.95C16.8542 43.95 15.233 45.5712 15.233 47.571C15.233 49.5708 16.8542 51.192 18.854 51.192Z" fill="white"/>
<path opacity="0.2" d="M80.921 18.597L42.678 34.95C42.3796 35.0767 42.0587 35.142 41.7345 35.142C41.4103 35.142 41.0894 35.0767 40.791 34.95L2.02903 18.597C1.54237 18.3966 1.13633 18.0398 0.875035 17.583C0.704162 17.8793 0.59826 18.2086 0.564396 18.549C0.530532 18.8894 0.569484 19.2331 0.678623 19.5573C0.787763 19.8815 0.964597 20.1788 1.19742 20.4294C1.43025 20.6801 1.71373 20.8783 2.02903 21.011L40.791 37.364C41.0894 37.4907 41.4103 37.556 41.7345 37.556C42.0587 37.556 42.3796 37.4907 42.678 37.364L80.921 21.011C81.2348 20.8771 81.5167 20.6783 81.748 20.4275C81.9792 20.1767 82.1547 19.8797 82.2627 19.5561C82.3707 19.2325 82.4089 18.8896 82.3746 18.5502C82.3404 18.2108 82.2345 17.8825 82.064 17.587C81.8047 18.0404 81.4029 18.3955 80.921 18.597Z" fill="black"/>
<path d="M19.157 47.56C19.3162 47.56 19.4688 47.4968 19.5813 47.3842C19.6938 47.2717 19.757 47.1191 19.757 46.96V26.76L39.657 19.509C39.8171 19.5114 39.9715 19.4501 40.0864 19.3386C40.2012 19.2271 40.2671 19.0745 40.2695 18.9145C40.2719 18.7544 40.2106 18.6 40.0991 18.4851C39.9876 18.3702 39.8351 18.3044 39.675 18.302L19.775 25.553C19.6148 25.5493 19.4556 25.5781 19.3069 25.6378C19.1582 25.6974 19.0232 25.7866 18.91 25.9C18.7957 26.0121 18.7049 26.1459 18.6431 26.2936C18.5813 26.4413 18.5496 26.5999 18.55 26.76V46.953C18.5491 47.0329 18.5641 47.1123 18.5943 47.1864C18.6245 47.2604 18.6692 47.3277 18.7257 47.3843C18.7823 47.4408 18.8496 47.4855 18.9236 47.5157C18.9977 47.5459 19.0771 47.5609 19.157 47.56Z" fill="white"/>
</svg>
